<svg xmlns="http://www.w3.org/2000/svg" xmlns:xlink="http://www.w3.org/1999/xlink" width="1000" zoomAndPan="magnify" viewBox="0 0 750 374.999991" height="500" preserveAspectRatio="xMidYMid meet" version="1.2"><defs><clipPath id="5dac69d5f9"><path d="M 235.84375 25.964844 L 501 25.964844 L 501 245.09375 L 235.84375 245.09375 Z M 235.84375 25.964844 "/></clipPath><clipPath id="1548b25e0f"><path d="M 289.84375 25.964844 L 446.960938 25.964844 C 461.285156 25.964844 475.019531 31.652344 485.144531 41.78125 C 495.273438 51.90625 500.960938 65.640625 500.960938 79.964844 L 500.960938 191.09375 C 500.960938 220.917969 476.785156 245.09375 446.960938 245.09375 L 289.84375 245.09375 C 260.019531 245.09375 235.84375 220.917969 235.84375 191.09375 L 235.84375 79.964844 C 235.84375 50.140625 260.019531 25.964844 289.84375 25.964844 Z M 289.84375 25.964844 "/></clipPath><clipPath id="267a39dff5"><path d="M 0.84375 0.964844 L 266 0.964844 L 266 220.09375 L 0.84375 220.09375 Z M 0.84375 0.964844 "/></clipPath><clipPath id="9b55f50865"><path d="M 54.84375 0.964844 L 211.960938 0.964844 C 226.285156 0.964844 240.019531 6.652344 250.144531 16.78125 C 260.273438 26.90625 265.960938 40.640625 265.960938 54.964844 L 265.960938 166.09375 C 265.960938 195.917969 241.785156 220.09375 211.960938 220.09375 L 54.84375 220.09375 C 25.019531 220.09375 0.84375 195.917969 0.84375 166.09375 L 0.84375 54.964844 C 0.84375 25.140625 25.019531 0.964844 54.84375 0.964844 Z M 54.84375 0.964844 "/></clipPath><clipPath id="07cfb77592"><rect x="0" width="266" y="0" height="221"/></clipPath><clipPath id="975ab96cf5"><path d="M 287 45.21875 L 445 45.21875 L 445 225.96875 L 287 225.96875 Z M 287 45.21875 "/></clipPath><clipPath id="73b9a7f222"><rect x="0" width="429" y="0" height="94"/></clipPath></defs><g id="d837052070"><g clip-rule="nonzero" clip-path="url(#5dac69d5f9)"><g clip-rule="nonzero" clip-path="url(#1548b25e0f)"><g transform="matrix(1,0,0,1,235,25)"><g clip-path="url(#07cfb77592)"><g clip-rule="nonzero" clip-path="url(#267a39dff5)"><g clip-rule="nonzero" clip-path="url(#9b55f50865)"><path style=" stroke:none;fill-rule:nonzero;fill:#ff6900;fill-opacity:1;" d="M 0.84375 0.964844 L 266.199219 0.964844 L 266.199219 220.09375 L 0.84375 220.09375 Z M 0.84375 0.964844 "/></g></g></g></g></g></g><g clip-rule="nonzero" clip-path="url(#975ab96cf5)"><path style=" stroke:none;fill-rule:nonzero;fill:#101828;fill-opacity:1;" d="M 313.855469 45.316406 C 305.765625 45.476562 297.859375 49.316406 292.777344 56.394531 C 284.222656 68.308594 286.949219 84.929688 298.863281 93.488281 C 299.335938 93.824219 299.8125 94.085938 300.300781 94.386719 C 311.1875 85.824219 328.941406 61.089844 331.359375 51.523438 C 330.859375 51.109375 330.382812 50.691406 329.847656 50.308594 C 325.007812 46.832031 319.394531 45.210938 313.855469 45.320312 Z M 333.621094 53.617188 C 330.652344 66.78125 314.628906 85.582031 304 96.335938 C 309.589844 98.707031 315.722656 99.050781 321.378906 97.503906 C 321.390625 97.492188 321.414062 97.492188 321.425781 97.476562 C 325.015625 93.835938 328.992188 89.050781 332.160156 84.628906 C 335.351562 80.171875 338.632812 74.988281 340.847656 70.339844 C 340.492188 64.214844 338.015625 58.246094 333.621094 53.617188 Z M 364.921875 70.535156 C 363.304688 70.574219 361.71875 71.386719 360.785156 72.847656 L 352.824219 85.261719 C 352.023438 86.511719 349.363281 88.792969 349.734375 90.128906 C 350.054688 91.28125 352.71875 92.625 353.796875 93.316406 L 364.046875 97.722656 C 366.378906 99.21875 368.464844 98.546875 369.960938 96.214844 L 377.894531 83.824219 C 378.5625 82.785156 379.605469 81.316406 379.453125 80.171875 C 379.261719 78.753906 377.679688 77.691406 376.386719 76.863281 L 367.746094 71.3125 C 366.871094 70.753906 365.894531 70.511719 364.921875 70.535156 Z M 343.136719 71.996094 C 343.132812 72.007812 343.121094 72.03125 343.113281 72.042969 L 343.160156 72.140625 C 342.285156 73.824219 341.328125 75.546875 340.3125 77.277344 C 340.300781 77.300781 340.28125 77.324219 340.265625 77.347656 C 338.496094 80.34375 336.53125 83.34375 334.351562 86.378906 C 332.203125 89.371094 329.96875 92.179688 327.730469 94.777344 C 327.71875 94.785156 327.71875 94.792969 327.707031 94.800781 C 326.386719 96.324219 325.089844 97.796875 323.761719 99.183594 C 326.140625 100.628906 328.832031 102.269531 331.453125 103.878906 C 333.550781 100.855469 335.75 97.917969 338.050781 95.09375 C 340.464844 91.917969 344.480469 88.871094 348.542969 91.246094 C 346.875 87.425781 352.148438 85.085938 353.164062 81.828125 C 353.441406 81.523438 353.714844 81.199219 353.96875 80.855469 C 350.09375 77.742188 346.445312 74.75 343.136719 71.996094 Z M 384.785156 80.390625 C 383.078125 80.40625 381.433594 81.265625 380.5 82.824219 L 373.050781 95.261719 C 372.296875 96.527344 370.511719 98.574219 370.910156 99.886719 C 371.257812 101.046875 373.664062 101.507812 374.78125 102.175781 C 376.542969 103.085938 383.136719 104.855469 383.226562 107.214844 C 383.324219 109.882812 380.714844 114.78125 382.570312 117.632812 C 383.5 118.191406 386.371094 114.421875 388.238281 111.667969 C 389.042969 110.484375 389.960938 109.753906 390.261719 109.378906 C 390.96875 108.496094 391.753906 107.871094 392.378906 106.824219 L 399.824219 94.410156 C 401.25 92.035156 400.476562 88.921875 398.097656 87.5 L 387.410156 81.097656 C 386.59375 80.609375 385.675781 80.382812 384.785156 80.390625 Z M 345.253906 91.976562 C 345.136719 91.984375 345.011719 91.984375 344.890625 92 C 343.742188 92.355469 342.730469 92.898438 341.800781 93.558594 C 341.738281 93.609375 341.664062 93.652344 341.605469 93.707031 C 340.203125 94.921875 338.621094 96.6875 336.957031 98.816406 C 335.394531 101.054688 333.992188 103.429688 332.332031 105.339844 C 325.855469 115.105469 319.675781 127.011719 319.675781 129.4375 C 319.675781 133.734375 333.28125 147.976562 339.902344 159.519531 C 346.390625 170.835938 354.484375 178.988281 353.726562 180.722656 C 351.71875 192.3125 350.632812 197.332031 348.664062 211.558594 C 346.691406 225.785156 348.734375 225.796875 348.734375 225.796875 C 348.734375 225.796875 401.492188 225.621094 402.527344 225.53125 C 403.5625 225.4375 403.355469 223.972656 403.355469 223.972656 C 403.355469 222.292969 403.695312 220.332031 404.035156 218.835938 C 404.375 217.34375 404.304688 206.871094 404.304688 202.652344 C 403.796875 198.648438 405.046875 183.859375 405.230469 183.179688 C 405.410156 182.5 406.4375 181.261719 407.636719 180.0625 C 408.835938 178.863281 410.800781 175.125 410.800781 175.125 C 413.203125 171.921875 413.742188 172.640625 414.914062 170.132812 C 415.722656 168.410156 416.886719 162.851562 417.714844 159.179688 C 413.628906 156.644531 409.59375 153.984375 405.472656 151.539062 L 404.789062 152.148438 C 404.398438 152.695312 403.683594 152.65625 403.304688 151.757812 C 402.925781 150.859375 401.96875 150.222656 401.96875 150.222656 C 400.777344 149.777344 398.148438 146.863281 394.640625 143.75 C 391.617188 139.996094 387.910156 140.277344 385.925781 139.488281 C 383.941406 138.703125 370.46875 135.863281 368.742188 135.765625 C 367.015625 135.671875 368.742188 137.933594 368.742188 137.933594 C 371.875 142.058594 382.058594 154.28125 382.105469 154.335938 C 382.042969 154.289062 381.898438 154.332031 383.589844 158.253906 C 385.523438 162.742188 386.867188 167.695312 388.117188 169.839844 C 389.152344 174.238281 391.351562 175.613281 392.546875 176.242188 C 393.742188 176.871094 393.300781 177.410156 393.300781 177.410156 C 392.515625 177.835938 390.8125 179.554688 389.871094 179.554688 C 388.925781 179.554688 387.824219 180.941406 387.824219 180.941406 C 386.667969 181.976562 388.261719 208.765625 388.261719 209.976562 C 388.261719 211.1875 387.605469 211.488281 387.605469 211.488281 C 387.605469 211.488281 387.007812 210.898438 387.191406 210.269531 C 387.375 209.640625 386.898438 202.46875 386.609375 200.824219 C 385.957031 199.46875 386.195312 197.785156 386.195312 197.785156 C 386.617188 195.773438 384.691406 183.335938 384.199219 181.695312 C 383.707031 180.050781 384.167969 178.28125 383.492188 177.605469 C 382.816406 176.929688 376.429688 177.574219 375.898438 177.046875 C 375.367188 176.515625 375.898438 176.511719 375.898438 176.511719 C 379.109375 176.210938 386.386719 170.804688 386.414062 169.183594 C 386.4375 167.5625 363.523438 133.683594 361.390625 132.429688 C 359.257812 131.179688 355.546875 130.421875 354.503906 129.898438 C 353.460938 129.375 351.710938 127.917969 349.027344 127.5625 C 346.34375 127.207031 345.980469 126.664062 345.789062 126.273438 C 345.601562 125.878906 347.933594 125.542969 347.933594 125.542969 C 351.027344 123.386719 352.972656 118.027344 352.144531 115.929688 C 351.316406 113.828125 351.996094 113.371094 351.996094 113.371094 C 354.550781 114.5625 361.683594 122.328125 361.683594 122.328125 C 366.582031 123.402344 375.34375 119.949219 378.234375 118.605469 C 381.125 117.261719 381.820312 109.117188 381.328125 107.433594 C 381.121094 106.730469 375.660156 104.054688 369.058594 101.128906 C 368.816406 101.078125 368.5625 100.988281 368.355469 100.835938 C 362.503906 98.257812 355.945312 95.558594 351.121094 93.804688 C 351.285156 94.136719 351.472656 94.460938 351.632812 94.777344 C 350.460938 94.277344 349.359375 93.417969 348.199219 92.78125 C 348.164062 92.769531 348.136719 92.769531 348.101562 92.757812 C 346.863281 92.351562 345.890625 92.082031 345.253906 91.976562 Z M 402.160156 97.820312 C 400.707031 97.851562 399.28125 98.496094 398.316406 99.71875 L 379.183594 127.101562 C 377.46875 129.273438 377.835938 132.464844 380.011719 134.183594 L 389.019531 138.492188 C 391.191406 140.210938 394.382812 139.839844 396.101562 137.664062 L 414.597656 114.25 C 416.316406 112.074219 415.945312 108.882812 413.773438 107.164062 L 405.398438 98.890625 C 404.449219 98.136719 403.292969 97.792969 402.160156 97.820312 Z M 369.277344 99.207031 C 368.527344 99.320312 369.5 99.90625 369.277344 99.207031 Z M 418.566406 114.222656 C 418.136719 114.238281 417.714844 114.378906 417.398438 114.6875 L 396.804688 139.367188 C 395.53125 140.597656 395.382812 142.550781 396.488281 143.699219 L 402.113281 149.515625 C 403.222656 150.664062 405.171875 150.601562 406.445312 149.371094 L 428.984375 127.609375 C 430.257812 126.382812 430.382812 124.425781 429.277344 123.277344 L 422.289062 116.121094 C 421.457031 115.261719 419.855469 114.1875 418.566406 114.222656 Z M 380.304688 120.550781 L 368.328125 123.863281 C 366.34375 124.398438 362.113281 125.703125 360.90625 123.691406 C 359.699219 121.683594 359.667969 121.128906 358.15625 121.210938 C 355.664062 121.699219 356.308594 123.84375 356.890625 124.519531 C 358.0625 125.886719 366.035156 131.246094 370.25 132.722656 C 370.769531 132.902344 371.214844 132.585938 372.003906 131.40625 C 372.792969 130.226562 379.734375 122.449219 380.351562 121.523438 C 380.835938 120.574219 380.304688 120.550781 380.304688 120.550781 Z M 423.335938 135.300781 C 420.078125 138.355469 416.710938 141.351562 413.648438 144.550781 C 411.589844 146.027344 409.5625 149.136719 407.152344 150.78125 C 414.3125 155.199219 421.105469 159.382812 426.964844 162.929688 C 428.566406 164.082031 432.398438 161.503906 435.484375 157.207031 C 438.566406 152.914062 439.765625 148.527344 438.160156 147.375 C 433.742188 143.683594 428.722656 139.605469 423.335938 135.304688 Z M 439.984375 152.121094 C 438.859375 156.394531 435.890625 160.339844 432.222656 162.929688 L 435.773438 165.3125 C 437.371094 166.398438 439.539062 166 440.640625 164.414062 L 444.269531 159.203125 C 445.371094 157.617188 444.992188 155.492188 443.394531 154.410156 Z M 439.984375 152.121094 "/></g><g transform="matrix(1,0,0,1,159,252)"><g clip-path="url(#73b9a7f222)"><g style="fill:#ffffff;fill-opacity:1;"><g transform="translate(2.105096, 73.79368)"><path style="stroke:none" d="M 16.375 -23.703125 L 16.375 0 L 4.671875 0 L 4.671875 -53.03125 L 16.375 -53.03125 L 16.375 -29.328125 L 33.140625 -53.03125 L 48.109375 -53.03125 L 27.765625 -26.515625 L 48.890625 0 L 33.140625 0 Z M 16.375 -23.703125 "/></g></g><g style="fill:#ffffff;fill-opacity:1;"><g transform="translate(45.614638, 73.79368)"><path style="stroke:none" d="M 31.578125 -17.15625 C 31.578125 -18.664062 31.210938 -20.066406 30.484375 -21.359375 C 29.765625 -22.660156 28.789062 -23.710938 27.5625 -24.515625 C 26.34375 -25.328125 24.953125 -25.734375 23.390625 -25.734375 C 21.835938 -25.734375 20.445312 -25.328125 19.21875 -24.515625 C 18 -23.710938 17.023438 -22.660156 16.296875 -21.359375 C 15.566406 -20.066406 15.203125 -18.664062 15.203125 -17.15625 C 15.203125 -15.644531 15.566406 -14.238281 16.296875 -12.9375 C 17.023438 -11.644531 18 -10.59375 19.21875 -9.78125 C 20.445312 -8.976562 21.835938 -8.578125 23.390625 -8.578125 C 24.953125 -8.578125 26.34375 -8.976562 27.5625 -9.78125 C 28.789062 -10.59375 29.765625 -11.644531 30.484375 -12.9375 C 31.210938 -14.238281 31.578125 -15.644531 31.578125 -17.15625 Z M 43.28125 -34.3125 L 43.28125 0 L 31.578125 0 L 31.578125 -4.140625 C 30.441406 -2.367188 28.738281 -1.101562 26.46875 -0.34375 C 24.207031 0.40625 21.988281 0.78125 19.8125 0.78125 C 16.582031 0.78125 13.664062 -0.0507812 11.0625 -1.71875 C 8.46875 -3.382812 6.429688 -5.582031 4.953125 -8.3125 C 3.472656 -11.039062 2.734375 -13.988281 2.734375 -17.15625 C 2.734375 -20.320312 3.472656 -23.269531 4.953125 -26 C 6.429688 -28.738281 8.46875 -30.953125 11.0625 -32.640625 C 13.664062 -34.328125 16.582031 -35.171875 19.8125 -35.171875 C 21.988281 -35.171875 24.117188 -34.804688 26.203125 -34.078125 C 28.285156 -33.347656 30.078125 -32.050781 31.578125 -30.1875 L 31.578125 -34.3125 Z M 43.28125 -34.3125 "/></g></g><g style="fill:#ffffff;fill-opacity:1;"><g transform="translate(88.96822, 73.79368)"><path style="stroke:none" d="M 24.09375 -25.734375 C 22.632812 -25.734375 21.320312 -25.300781 20.15625 -24.4375 C 18.988281 -23.582031 18.066406 -22.503906 17.390625 -21.203125 C 16.710938 -19.910156 16.375 -18.5625 16.375 -17.15625 L 16.375 0 L 4.671875 0 L 4.671875 -34.390625 L 16.375 -34.390625 L 16.375 -30.1875 C 17.257812 -31.476562 18.453125 -32.628906 19.953125 -33.640625 C 21.460938 -34.660156 23.285156 -35.171875 25.421875 -35.171875 C 25.941406 -35.171875 26.539062 -35.101562 27.21875 -34.96875 C 27.894531 -34.84375 28.46875 -34.648438 28.9375 -34.390625 L 28.9375 -23.78125 L 28.78125 -23.78125 C 28.207031 -24.507812 27.503906 -25.015625 26.671875 -25.296875 C 25.835938 -25.585938 24.976562 -25.734375 24.09375 -25.734375 Z M 24.09375 -25.734375 "/></g></g><g style="fill:#ffffff;fill-opacity:1;"><g transform="translate(114.075297, 73.79368)"><path style="stroke:none" d="M 31.578125 -17.15625 C 31.578125 -18.664062 31.210938 -20.066406 30.484375 -21.359375 C 29.765625 -22.660156 28.789062 -23.710938 27.5625 -24.515625 C 26.34375 -25.328125 24.953125 -25.734375 23.390625 -25.734375 C 21.835938 -25.734375 20.445312 -25.328125 19.21875 -24.515625 C 18 -23.710938 17.023438 -22.660156 16.296875 -21.359375 C 15.566406 -20.066406 15.203125 -18.664062 15.203125 -17.15625 C 15.203125 -15.644531 15.566406 -14.238281 16.296875 -12.9375 C 17.023438 -11.644531 18 -10.59375 19.21875 -9.78125 C 20.445312 -8.976562 21.835938 -8.578125 23.390625 -8.578125 C 24.953125 -8.578125 26.34375 -8.976562 27.5625 -9.78125 C 28.789062 -10.59375 29.765625 -11.644531 30.484375 -12.9375 C 31.210938 -14.238281 31.578125 -15.644531 31.578125 -17.15625 Z M 43.28125 -34.3125 L 43.28125 0 L 31.578125 0 L 31.578125 -4.140625 C 30.441406 -2.367188 28.738281 -1.101562 26.46875 -0.34375 C 24.207031 0.40625 21.988281 0.78125 19.8125 0.78125 C 16.582031 0.78125 13.664062 -0.0507812 11.0625 -1.71875 C 8.46875 -3.382812 6.429688 -5.582031 4.953125 -8.3125 C 3.472656 -11.039062 2.734375 -13.988281 2.734375 -17.15625 C 2.734375 -20.320312 3.472656 -23.269531 4.953125 -26 C 6.429688 -28.738281 8.46875 -30.953125 11.0625 -32.640625 C 13.664062 -34.328125 16.582031 -35.171875 19.8125 -35.171875 C 21.988281 -35.171875 24.117188 -34.804688 26.203125 -34.078125 C 28.285156 -33.347656 30.078125 -32.050781 31.578125 -30.1875 L 31.578125 -34.3125 Z M 43.28125 -34.3125 "/></g></g><g style="fill:#ffffff;fill-opacity:1;"><g transform="translate(157.428879, 73.79368)"><path style="stroke:none" d="M 22.375 -8.109375 C 24.457031 -8.109375 26.070312 -8.550781 27.21875 -9.4375 C 28.363281 -10.320312 29.164062 -11.453125 29.625 -12.828125 C 30.09375 -14.203125 30.328125 -15.617188 30.328125 -17.078125 C 30.328125 -18.535156 30.082031 -19.9375 29.59375 -21.28125 C 29.101562 -22.632812 28.285156 -23.753906 27.140625 -24.640625 C 25.992188 -25.523438 24.40625 -25.96875 22.375 -25.96875 C 20.351562 -25.96875 18.753906 -25.523438 17.578125 -24.640625 C 16.410156 -23.753906 15.578125 -22.632812 15.078125 -21.28125 C 14.585938 -19.9375 14.34375 -18.535156 14.34375 -17.078125 C 14.34375 -15.617188 14.578125 -14.203125 15.046875 -12.828125 C 15.515625 -11.453125 16.332031 -10.320312 17.5 -9.4375 C 18.675781 -8.550781 20.300781 -8.109375 22.375 -8.109375 Z M 22.375 -35.09375 C 25.96875 -35.09375 29.242188 -34.335938 32.203125 -32.828125 C 35.171875 -31.316406 37.535156 -29.222656 39.296875 -26.546875 C 41.066406 -23.867188 41.953125 -20.738281 41.953125 -17.15625 C 41.953125 -13.519531 41.082031 -10.363281 39.34375 -7.6875 C 37.601562 -5.007812 35.25 -2.941406 32.28125 -1.484375 C 29.320312 -0.0234375 26.019531 0.703125 22.375 0.703125 C 18.738281 0.703125 15.425781 -0.0234375 12.4375 -1.484375 C 9.445312 -2.941406 7.082031 -5.007812 5.34375 -7.6875 C 3.601562 -10.363281 2.734375 -13.519531 2.734375 -17.15625 C 2.734375 -20.738281 3.613281 -23.867188 5.375 -26.546875 C 7.144531 -29.222656 9.523438 -31.316406 12.515625 -32.828125 C 15.503906 -34.335938 18.789062 -35.09375 22.375 -35.09375 Z M 22.375 -35.09375 "/></g></g><g style="fill:#ffffff;fill-opacity:1;"><g transform="translate(197.507436, 73.79368)"><path style="stroke:none" d="M 16.375 -15.203125 L 16.375 0 L 4.671875 0 L 4.671875 -58.484375 L 16.375 -58.484375 L 16.375 -20.75 L 27.375 -34.390625 L 41.875 -34.390625 L 27.0625 -18.015625 L 43.4375 0 L 28.46875 0 Z M 16.375 -15.203125 "/></g></g><g style="fill:#ffffff;fill-opacity:1;"><g transform="translate(233.999095, 73.79368)"><path style="stroke:none" d="M 15.28125 -21.296875 L 30.640625 -21.296875 C 30.640625 -21.296875 30.578125 -21.617188 30.453125 -22.265625 C 30.328125 -22.910156 30.015625 -23.648438 29.515625 -24.484375 C 29.023438 -25.316406 28.257812 -26.054688 27.21875 -26.703125 C 26.175781 -27.359375 24.769531 -27.6875 23 -27.6875 C 21.1875 -27.6875 19.757812 -27.359375 18.71875 -26.703125 C 17.675781 -26.054688 16.90625 -25.316406 16.40625 -24.484375 C 15.914062 -23.648438 15.601562 -22.910156 15.46875 -22.265625 C 15.34375 -21.617188 15.28125 -21.296875 15.28125 -21.296875 Z M 41.875 -17.9375 C 41.875 -17.570312 41.859375 -17.207031 41.828125 -16.84375 C 41.804688 -16.476562 41.796875 -16.113281 41.796875 -15.75 L 15.125 -15.75 C 15.125 -14.445312 15.421875 -13.160156 16.015625 -11.890625 C 16.617188 -10.617188 17.476562 -9.578125 18.59375 -8.765625 C 19.71875 -7.960938 21.03125 -7.5625 22.53125 -7.5625 C 24.613281 -7.5625 26.253906 -8.117188 27.453125 -9.234375 C 28.648438 -10.359375 29.273438 -11.546875 29.328125 -12.796875 L 41.25 -12.796875 C 40.257812 -8.265625 38.078125 -4.867188 34.703125 -2.609375 C 31.328125 -0.347656 27.347656 0.78125 22.765625 0.78125 C 18.816406 0.78125 15.332031 0.0390625 12.3125 -1.4375 C 9.300781 -2.925781 6.953125 -5.007812 5.265625 -7.6875 C 3.578125 -10.363281 2.734375 -13.519531 2.734375 -17.15625 C 2.734375 -20.738281 3.601562 -23.878906 5.34375 -26.578125 C 7.082031 -29.285156 9.457031 -31.394531 12.46875 -32.90625 C 15.488281 -34.414062 18.921875 -35.171875 22.765625 -35.171875 C 26.253906 -35.171875 29.441406 -34.492188 32.328125 -33.140625 C 35.210938 -31.785156 37.523438 -29.832031 39.265625 -27.28125 C 41.003906 -24.738281 41.875 -21.625 41.875 -17.9375 Z M 41.875 -17.9375 "/></g></g><g style="fill:#ffffff;fill-opacity:1;"><g transform="translate(273.999694, 73.79368)"><path style="stroke:none" d="M 27.21875 -42.421875 L 27.21875 0 L 15.515625 0 L 15.515625 -42.421875 L 0.390625 -42.421875 L 0.390625 -53.03125 L 42.34375 -53.03125 L 42.34375 -42.421875 Z M 27.21875 -42.421875 "/></g></g><g style="fill:#ffffff;fill-opacity:1;"><g transform="translate(302.770643, 73.79368)"><path style="stroke:none" d="M 3.90625 -14.8125 L 3.90625 -34.390625 L 15.59375 -34.390625 L 15.59375 -14.8125 C 15.59375 -12.84375 16.007812 -11.3125 16.84375 -10.21875 C 17.675781 -9.125 19.003906 -8.578125 20.828125 -8.578125 C 22.640625 -8.578125 24.179688 -9.429688 25.453125 -11.140625 C 26.734375 -12.859375 27.375 -14.863281 27.375 -17.15625 L 27.375 -34.390625 L 39.0625 -34.390625 L 39.0625 0 L 27.375 0 L 27.375 -4.21875 C 26.226562 -2.757812 24.757812 -1.5625 22.96875 -0.625 C 21.175781 0.3125 19.132812 0.78125 16.84375 0.78125 C 12.269531 0.78125 8.96875 -0.660156 6.9375 -3.546875 C 4.914062 -6.429688 3.90625 -10.1875 3.90625 -14.8125 Z M 3.90625 -14.8125 "/></g></g><g style="fill:#ffffff;fill-opacity:1;"><g transform="translate(341.913486, 73.79368)"><path style="stroke:none" d="M 16.375 -17.15625 C 16.375 -15.644531 16.738281 -14.238281 17.46875 -12.9375 C 18.195312 -11.644531 19.171875 -10.59375 20.390625 -9.78125 C 21.609375 -8.976562 23 -8.578125 24.5625 -8.578125 C 26.125 -8.578125 27.515625 -8.976562 28.734375 -9.78125 C 29.953125 -10.59375 30.925781 -11.644531 31.65625 -12.9375 C 32.382812 -14.238281 32.75 -15.644531 32.75 -17.15625 C 32.75 -18.664062 32.382812 -20.066406 31.65625 -21.359375 C 30.925781 -22.660156 29.953125 -23.710938 28.734375 -24.515625 C 27.515625 -25.328125 26.125 -25.734375 24.5625 -25.734375 C 23 -25.734375 21.609375 -25.328125 20.390625 -24.515625 C 19.171875 -23.710938 18.195312 -22.660156 17.46875 -21.359375 C 16.738281 -20.066406 16.375 -18.664062 16.375 -17.15625 Z M 16.375 0 L 4.671875 0 L 4.671875 -58.484375 L 16.375 -58.484375 L 16.375 -30.1875 C 17.882812 -32.050781 19.664062 -33.347656 21.71875 -34.078125 C 23.769531 -34.804688 25.914062 -35.171875 28.15625 -35.171875 C 31.425781 -35.171875 34.347656 -34.328125 36.921875 -32.640625 C 39.492188 -30.953125 41.519531 -28.738281 43 -26 C 44.488281 -23.269531 45.234375 -20.320312 45.234375 -17.15625 C 45.234375 -13.988281 44.488281 -11.039062 43 -8.3125 C 41.519531 -5.582031 39.492188 -3.382812 36.921875 -1.71875 C 34.347656 -0.0507812 31.425781 0.78125 28.15625 0.78125 C 25.914062 0.78125 23.691406 0.40625 21.484375 -0.34375 C 19.273438 -1.101562 17.570312 -2.367188 16.375 -4.140625 Z M 16.375 0 "/></g></g><g style="fill:#ffffff;fill-opacity:1;"><g transform="translate(385.267068, 73.79368)"><path style="stroke:none" d="M 15.28125 -21.296875 L 30.640625 -21.296875 C 30.640625 -21.296875 30.578125 -21.617188 30.453125 -22.265625 C 30.328125 -22.910156 30.015625 -23.648438 29.515625 -24.484375 C 29.023438 -25.316406 28.257812 -26.054688 27.21875 -26.703125 C 26.175781 -27.359375 24.769531 -27.6875 23 -27.6875 C 21.1875 -27.6875 19.757812 -27.359375 18.71875 -26.703125 C 17.675781 -26.054688 16.90625 -25.316406 16.40625 -24.484375 C 15.914062 -23.648438 15.601562 -22.910156 15.46875 -22.265625 C 15.34375 -21.617188 15.28125 -21.296875 15.28125 -21.296875 Z M 41.875 -17.9375 C 41.875 -17.570312 41.859375 -17.207031 41.828125 -16.84375 C 41.804688 -16.476562 41.796875 -16.113281 41.796875 -15.75 L 15.125 -15.75 C 15.125 -14.445312 15.421875 -13.160156 16.015625 -11.890625 C 16.617188 -10.617188 17.476562 -9.578125 18.59375 -8.765625 C 19.71875 -7.960938 21.03125 -7.5625 22.53125 -7.5625 C 24.613281 -7.5625 26.253906 -8.117188 27.453125 -9.234375 C 28.648438 -10.359375 29.273438 -11.546875 29.328125 -12.796875 L 41.25 -12.796875 C 40.257812 -8.265625 38.078125 -4.867188 34.703125 -2.609375 C 31.328125 -0.347656 27.347656 0.78125 22.765625 0.78125 C 18.816406 0.78125 15.332031 0.0390625 12.3125 -1.4375 C 9.300781 -2.925781 6.953125 -5.007812 5.265625 -7.6875 C 3.578125 -10.363281 2.734375 -13.519531 2.734375 -17.15625 C 2.734375 -20.738281 3.601562 -23.878906 5.34375 -26.578125 C 7.082031 -29.285156 9.457031 -31.394531 12.46875 -32.90625 C 15.488281 -34.414062 18.921875 -35.171875 22.765625 -35.171875 C 26.253906 -35.171875 29.441406 -34.492188 32.328125 -33.140625 C 35.210938 -31.785156 37.523438 -29.832031 39.265625 -27.28125 C 41.003906 -24.738281 41.875 -21.625 41.875 -17.9375 Z M 41.875 -17.9375 "/></g></g></g></g></g></svg>